<svg width="24" height="24" viewBox="0 0 24 24" fill="none" xmlns="http://www.w3.org/2000/svg">
<path d="M18.4811 5.83589L17.9843 5.77991L18.4811 5.83589ZM15.8359 8.48114L15.7799 7.98428L15.8359 8.48114ZM15.7929 16.2071L15.4393 16.5607L15.7929 16.2071ZM15.7929 12.7929L15.4393 12.4393L15.7929 12.7929ZM19.2071 8.79289L18.8536 9.14645L19.2071 8.79289ZM18.056 4.50314L18 5L18.056 4.50314ZM18.4969 4.94402L18.9937 4.88804L18.4969 4.94402ZM6.5 5L17.9286 5V4L6.5 4V5ZM8.5 20H17.5V19H8.5V20ZM4 6.5L4 15.5L5 15.5L5 6.5H4ZM17.5 8L6.5 8V9L17.5 9V8ZM19 16.5V17.5H20V16.5H19ZM19 10.5V12.5H20V10.5H19ZM17.5 17H19.5V16H17.5V17ZM19 12.5V16.5H20V12.5H19ZM19.5 12H17.5V13H19.5V12ZM15.0714 8H15V9H15.0714V8ZM18 5.07143C18 5.48307 17.9992 5.64743 17.9843 5.77991L18.978 5.89188C19.0008 5.68952 19 5.45585 19 5.07143H18ZM15.0714 9C15.4559 9 15.6895 9.00079 15.8919 8.97799L15.7799 7.98428C15.6474 7.99921 15.4831 8 15.0714 8V9ZM17.9843 5.77991C17.8537 6.93896 16.939 7.85369 15.7799 7.98428L15.8919 8.97799C17.5145 8.79516 18.7952 7.51455 18.978 5.89188L17.9843 5.77991ZM15 14.5C15 14.9573 14.9989 15.3505 15.0411 15.6639C15.0851 15.9917 15.1845 16.3058 15.4393 16.5607L16.1464 15.8536C16.1084 15.8155 16.0613 15.7475 16.0322 15.5306C16.0011 15.2994 16 14.9855 16 14.5H15ZM17.5 16C17.0145 16 16.7006 15.9989 16.4694 15.9678C16.2525 15.9387 16.1845 15.8916 16.1464 15.8536L15.4393 16.5607C15.6942 16.8155 16.0083 16.9149 16.3361 16.9589C16.6495 17.0011 17.0427 17 17.5 17V16ZM16 14.5C16 14.0145 16.0011 13.7006 16.0322 13.4694C16.0613 13.2525 16.1084 13.1845 16.1464 13.1464L15.4393 12.4393C15.1845 12.6942 15.0851 13.0083 15.0411 13.3361C14.9989 13.6495 15 14.0427 15 14.5H16ZM17.5 12C17.0427 12 16.6495 11.9989 16.3361 12.0411C16.0083 12.0851 15.6942 12.1845 15.4393 12.4393L16.1464 13.1464C16.1845 13.1084 16.2525 13.0613 16.4694 13.0322C16.7006 13.0011 17.0145 13 17.5 13V12ZM17.5 9C17.9855 9 18.2994 9.00106 18.5306 9.03215C18.7475 9.06131 18.8155 9.10838 18.8536 9.14645L19.5607 8.43934C19.3058 8.18451 18.9917 8.08514 18.6639 8.04107C18.3505 7.99894 17.9573 8 17.5 8V9ZM20 10.5C20 10.0427 20.0011 9.64948 19.9589 9.3361C19.9149 9.00835 19.8155 8.69417 19.5607 8.43934L18.8536 9.14645C18.8916 9.18451 18.9387 9.25248 18.9678 9.46935C18.9989 9.70061 19 10.0145 19 10.5H20ZM17.5 20C17.9573 20 18.3505 20.0011 18.6639 19.9589C18.9917 19.9149 19.3058 19.8155 19.5607 19.5607L18.8536 18.8536C18.8155 18.8916 18.7475 18.9387 18.5306 18.9678C18.2994 18.9989 17.9855 19 17.5 19V20ZM19 17.5C19 17.9855 18.9989 18.2994 18.9678 18.5306C18.9387 18.7475 18.8916 18.8155 18.8536 18.8536L19.5607 19.5607C19.8155 19.3058 19.9149 18.9917 19.9589 18.6639C20.0011 18.3505 20 17.9573 20 17.5H19ZM8.5 19C7.54306 19 6.87565 18.9989 6.37208 18.9312C5.8829 18.8655 5.62385 18.7452 5.43934 18.5607L4.73223 19.2678C5.13351 19.669 5.63876 19.8416 6.23883 19.9223C6.82452 20.0011 7.57133 20 8.5 20V19ZM4 15.5C4 16.4287 3.99894 17.1755 4.07768 17.7612C4.15836 18.3612 4.33096 18.8665 4.73223 19.2678L5.43934 18.5607C5.25483 18.3762 5.13453 18.1171 5.06876 17.6279C5.00106 17.1244 5 16.4569 5 15.5L4 15.5ZM4 6.5C4 7.88071 5.11929 9 6.5 9V8C5.67157 8 5 7.32843 5 6.5H4ZM17.9286 5C17.9637 5 17.9829 5.00002 17.9969 5.0003C18.0099 5.00055 18.0079 5.00089 18 5L18.112 4.00629C18.0491 3.99921 17.9813 4 17.9286 4V5ZM19 5.07143C19 5.0187 19.0008 4.95087 18.9937 4.88804L18 5C17.9991 4.9921 17.9994 4.99012 17.9997 5.0031C18 5.01714 18 5.03633 18 5.07143H19ZM18 5L18.9937 4.88804C18.9415 4.42442 18.5756 4.05853 18.112 4.00629L18 5ZM5 6.5C5 5.67157 5.67157 5 6.5 5V4C5.11929 4 4 5.11929 4 6.5H5Z" fill="white"/>
</svg>
